<svg width="52" height="59" viewBox="0 0 52 59" fill="none" xmlns="http://www.w3.org/2000/svg">
<path d="M24.4762 0.320372L1.02472 13.854C0.71369 14.0336 0.455309 14.2918 0.275464 14.6026C0.0956188 14.9135 0.000625121 15.2662 0 15.6253V42.922C0 43.6539 0.39525 44.3249 1.02472 44.6884L24.4689 58.2294C24.8392 58.4426 25.2591 58.5548 25.6864 58.5548C26.1137 58.5548 26.5335 58.4426 26.9038 58.2294L50.3505 44.6884C50.6608 44.5092 50.9187 44.2519 51.0985 43.9419C51.2783 43.632 51.3737 43.2803 51.3752 42.922V15.6253C51.3746 15.2662 51.2796 14.9135 51.0997 14.6026C50.9199 14.2918 50.6615 14.0336 50.3505 13.854L26.9014 0.320372C26.5309 0.110379 26.1123 0 25.6864 0C25.2605 0 24.8419 0.110379 24.4713 0.320372M2.89362 15.4643H48.1522C48.7939 15.4643 49.2013 16.1645 48.8768 16.7208L26.25 55.9164C26.0987 56.1775 25.6913 56.0726 25.6913 55.77V30.0959C25.6908 29.8436 25.6241 29.5958 25.4978 29.3774C25.3715 29.1591 25.19 28.9777 24.9715 28.8516L2.74479 16.0255C2.47885 15.8718 2.58864 15.4643 2.89362 15.4643Z" fill="black"/>
</svg>
