<svg width="59" height="59" viewBox="0 0 59 59" fill="none" xmlns="http://www.w3.org/2000/svg">
<g clip-path="url(#clip0_73_1120)">
<path d="M54.7092 23.9179C55.373 21.9499 55.6025 19.865 55.3826 17.8026C55.1627 15.7402 54.4983 13.7478 53.4338 11.9584C50.1959 6.40893 43.688 3.55435 37.3322 4.89572C35.5724 2.96832 33.3285 1.53076 30.8258 0.727436C28.3232 -0.0758908 25.6499 -0.216709 23.0745 0.319123C20.4991 0.854956 18.1123 2.04857 16.1536 3.7801C14.195 5.51163 12.7336 7.72011 11.9161 10.1837C9.85241 10.6004 7.90281 11.446 6.1976 12.6639C4.49239 13.8819 3.07085 15.4442 2.02799 17.2464C-1.24517 22.7871 -0.502022 29.776 3.8654 34.5293C3.1992 36.4964 2.96731 38.5809 3.18526 40.6434C3.4032 42.7058 4.06594 44.6987 5.12915 46.4886C8.3712 52.0402 14.8832 54.8945 21.2424 53.5513C22.6406 55.1015 24.3586 56.3402 26.2816 57.1847C28.2046 58.0291 30.2885 58.46 32.3941 58.4484C38.9086 58.454 44.6802 54.3132 46.6702 48.2054C48.7336 47.788 50.6828 46.9422 52.3879 45.7243C54.093 44.5064 55.5146 42.9445 56.5581 41.1427C59.7917 35.6119 59.0455 28.6609 54.7092 23.9179ZM32.3941 54.6231C29.7937 54.6272 27.275 53.7298 25.2793 52.0883L25.6305 51.8924L37.4491 45.1754C37.7432 45.0056 37.9875 44.7633 38.1578 44.4724C38.3281 44.1815 38.4186 43.852 38.4205 43.5163V27.1094L43.4172 29.9552C43.467 29.9802 43.5018 30.0273 43.5107 30.082V43.6775C43.4979 49.7173 38.5282 54.6105 32.3941 54.6231ZM8.49929 44.5763C7.19522 42.3592 6.727 39.7603 7.17699 37.2369L7.52787 37.4443L19.3584 44.1615C19.6511 44.3306 19.9843 44.4198 20.3237 44.4198C20.6631 44.4198 20.9964 44.3306 21.2891 44.1615L35.7407 35.9581V41.6382C35.7393 41.6676 35.7313 41.6964 35.7171 41.7223C35.7029 41.7482 35.683 41.7707 35.6588 41.788L23.6881 48.5858C18.3684 51.6032 11.5721 49.809 8.49929 44.5763ZM5.38647 19.2283C6.6996 16.9969 8.77224 15.295 11.2375 14.4238V28.2497C11.233 28.5838 11.3197 28.9129 11.4885 29.2027C11.6572 29.4925 11.9019 29.7324 12.197 29.8974L26.5783 38.0663L21.5817 40.9121C21.5546 40.9262 21.5245 40.9336 21.4939 40.9336C21.4634 40.9336 21.4332 40.9262 21.4062 40.9121L9.45883 34.1262C4.14971 31.0962 2.329 24.4096 5.38647 19.1709V19.2283ZM46.4362 28.6186L32.0077 20.369L36.993 17.5347C37.02 17.5206 37.0502 17.5132 37.0808 17.5132C37.1114 17.5132 37.1416 17.5206 37.1686 17.5347L49.116 24.3326C50.9428 25.3704 52.432 26.8985 53.4098 28.7384C54.3876 30.5783 54.8137 32.6542 54.6382 34.7236C54.4628 36.7929 53.693 38.7705 52.4189 40.4253C51.1448 42.0801 49.4189 43.3439 47.4426 44.0692V30.2431C47.4323 29.9096 47.3341 29.5846 47.1576 29.2998C46.9812 29.015 46.7326 28.7802 46.4362 28.6186ZM51.4093 21.2564L51.0582 21.0487L39.2513 14.2741C38.9568 14.1039 38.6215 14.0142 38.2801 14.0142C37.9386 14.0142 37.6033 14.1039 37.3089 14.2741L22.8687 22.4777V16.7976C22.8657 16.7687 22.8706 16.7396 22.8829 16.7132C22.8953 16.6868 22.9146 16.6642 22.939 16.6478L34.8863 9.86146C36.7174 8.82283 38.811 8.31902 40.9222 8.40894C43.0335 8.49886 45.075 9.1788 46.8082 10.3692C48.5413 11.5597 49.8944 13.2114 50.7092 15.1312C51.524 17.051 51.7667 19.1595 51.4091 21.2102V21.2564H51.4093ZM20.1425 31.3261L15.1458 28.4918C15.1208 28.4769 15.0995 28.4568 15.0833 28.4329C15.0671 28.4091 15.0564 28.3819 15.052 28.3535V14.7927C15.0548 12.7124 15.659 10.6758 16.794 8.92116C17.9289 7.16647 19.5478 5.76617 21.4612 4.88399C23.3747 4.0018 25.5037 3.67419 27.5993 3.93945C29.6948 4.2047 31.6704 5.05187 33.2951 6.38191L32.9439 6.57784L21.1253 13.2948C20.8312 13.4647 20.587 13.707 20.4168 13.9979C20.2465 14.2888 20.156 14.6183 20.1541 14.954L20.1425 31.3263V31.3261ZM22.8571 25.5652L29.2931 21.9129L35.7407 25.5654V32.87L29.3165 36.5225L22.869 32.87L22.8571 25.5652Z" fill="black"/>
</g>
<defs>
<clipPath id="clip0_73_1120">
<rect width="58.5556" height="58.5556" fill="white"/>
</clipPath>
</defs>
</svg>
