<svg width="59" height="59" viewBox="0 0 59 59" fill="none" xmlns="http://www.w3.org/2000/svg">
<g clip-path="url(#clip0_73_1128)">
<path d="M29.2777 4.87891C14.6388 4.87891 7.31934 17.078 7.31934 26.8372C7.31934 36.5965 14.6388 46.3558 21.9582 48.7956V53.6752H26.8379V48.7956C26.8379 48.7956 29.2777 49.7715 31.7175 48.7956V53.6752H36.5971V48.7956C43.9166 46.3558 51.236 36.5965 51.236 26.8372C51.236 17.078 43.9166 4.87891 29.2777 4.87891Z" fill="#FF4D4D"/>
<path d="M9.75977 21.9585C2.44032 19.5187 0.000506185 24.3983 2.44032 29.278C4.88014 34.1576 9.75977 31.7178 12.1996 26.8382C13.6635 23.4224 12.1996 21.9585 9.75977 21.9585Z" fill="#FF4D4D"/>
<path d="M48.7963 21.9585C56.1158 19.5187 58.5556 24.3983 56.1158 29.278C53.676 34.1576 48.7963 31.7178 46.3565 26.8382C44.8926 23.4224 46.3565 21.9585 48.7963 21.9585Z" fill="#FF4D4D"/>
<path d="M21.9581 7.31997C18.705 4.06688 16.2652 2.9283 14.6387 3.90423" stroke="#FF4D4D" stroke-width="7.31945" stroke-linecap="round"/>
<path d="M36.5986 7.31997C39.8517 4.06688 42.2915 2.9283 43.9181 3.90423" stroke="#FF4D4D" stroke-width="7.31945" stroke-linecap="round"/>
<path d="M21.9581 20.0069C23.575 20.0069 24.8858 18.6961 24.8858 17.0791C24.8858 15.4622 23.575 14.1514 21.9581 14.1514C20.3411 14.1514 19.0303 15.4622 19.0303 17.0791C19.0303 18.6961 20.3411 20.0069 21.9581 20.0069Z" fill="#050810"/>
<path d="M36.5967 20.0069C38.2137 20.0069 39.5245 18.6961 39.5245 17.0791C39.5245 15.4622 38.2137 14.1514 36.5967 14.1514C34.9798 14.1514 33.6689 15.4622 33.6689 17.0791C33.6689 18.6961 34.9798 20.0069 36.5967 20.0069Z" fill="#050810"/>
<path d="M22.4465 17.8109C23.1202 17.8109 23.6664 17.2647 23.6664 16.591C23.6664 15.9173 23.1202 15.3711 22.4465 15.3711C21.7727 15.3711 21.2266 15.9173 21.2266 16.591C21.2266 17.2647 21.7727 17.8109 22.4465 17.8109Z" fill="#F8FAFC"/>
<path d="M37.0851 17.8109C37.7589 17.8109 38.305 17.2647 38.305 16.591C38.305 15.9173 37.7589 15.3711 37.0851 15.3711C36.4114 15.3711 35.8652 15.9173 35.8652 16.591C35.8652 17.2647 36.4114 17.8109 37.0851 17.8109Z" fill="#F8FAFC"/>
</g>
<defs>
<clipPath id="clip0_73_1128">
<rect width="58.5556" height="58.5556" fill="white"/>
</clipPath>
</defs>
</svg>
